<?xml version="1.0" encoding="utf-8"?>
<!-- Generator: Adobe Illustrator 15.0.0, SVG Export Plug-In . SVG Version: 6.00 Build 0)  -->
<!DOCTYPE svg PUBLIC "-//W3C//DTD SVG 1.1//EN" "http://www.w3.org/Graphics/SVG/1.1/DTD/svg11.dtd">
<svg version="1.1" id="Capa_1" xmlns="http://www.w3.org/2000/svg" xmlns:xlink="http://www.w3.org/1999/xlink" x="0px" y="0px"
	 width="100px" height="100px" viewBox="0 0 100 100" enable-background="new 0 0 100 100" xml:space="preserve">
<g>
	<path fill="#FFFFFF" d="M67.949,97.461l-0.908-0.928l-0.654-1.121h-0.473h-0.66H64.31l-0.691-0.543l3.46-5.723l-0.33-0.234
		l-0.072-0.385l-0.365-0.31l-0.691-0.232l-0.51-0.425h-0.512h-0.362l-0.437-0.348l-0.182-0.309l-0.803-0.465l-0.363-0.232h-0.764
		h-0.546v0.734h-0.546l-0.764-0.077l-0.437,0.155v-0.348l-0.585-0.465v0.232v0.348l-0.252-0.386v-0.194l-1.201-0.231V85.59
		l-0.4,0.27l-0.545,0.543l-0.258,0.541l-0.327,0.038l-0.546,0.079c0,0-0.256,0.23-0.4,0.23c-0.146,0-1.201,0.154-1.201,0.154
		l-0.253-0.037l-0.769-0.156l-0.473-0.076v-0.115l-0.436,0.115l-0.219,0.309l-0.438-0.115l-0.873,0.31l-0.254-0.504l-0.619-0.155
		c0,0-0.584-0.115-0.546-0.387c0.035-0.271-0.332-0.619-0.003-0.813c0.33-0.191,0.477-0.464,0.477-0.464l-0.614-1.197l-0.587-0.389
		H46.87l-0.327-0.269v-0.309v-0.582v-0.426l-0.4-0.541l-0.22-0.658l-0.511-0.309h-0.397h-0.221h-0.254v-0.271l-0.364-0.463h-0.547
		l-0.291-0.35v-0.154h-0.582l-0.766-0.193v-0.54v-0.503l-0.399-0.271l-0.184-0.542v-0.503l-0.8-0.542l-0.728-0.579l-0.583-0.232
		v-0.541l-0.473-0.389h-0.402v0.271l-0.654-0.271l-0.804-0.617l-0.398-0.232l-0.802,0.426l-0.692-0.426l-0.728-0.232l-0.401-0.309
		h-0.912l-0.837-0.543l-0.618-0.502l-0.474-0.58l-0.437-0.232l-0.872-0.191l-0.655,0.191v0.541l-0.621,0.35h-0.546l-0.619-0.31
		l-1.238,0.193l-1.237-0.347l-0.729-0.155c0,0-1.275-0.464-1.311-0.464s-0.181-0.736-0.181-0.736v-0.465c0,0-0.692-0.23-0.728-0.347
		c-0.037-0.116,0-0.464,0-0.464l-0.366-0.348l-0.873,0.231l-0.912-0.231l-1.274-0.58l-0.329-0.426l-0.948-0.464l-0.619-0.542
		l-0.835-0.309l-1.092-1.045l-0.692-0.734l-0.4-0.348l0.437-0.852l0.727-0.31h0.984h0.473l-0.041-0.697l-0.4-0.581l-0.257-0.732
		l0.257-0.929l0.509-0.852l0.728-0.927l1.311-0.31h0.984h1.493l0.438-0.892l0.837-1.392l0.764-1.429l0.619-0.427
		c0,0,0.584-0.579,0.658-0.695c0.073-0.116,0.47-0.891,0.47-0.891s0.365-0.774,0.438-0.888c0.073-0.117,0.037-0.426-0.145-0.311
		c-0.183,0.116-0.656,0.271-0.656,0.271l-0.728-0.297l0.254-0.246l-0.254-0.372l-0.509-0.517c0,0-0.294-0.58-0.294-0.696
		c0-0.116,0.366-0.62,0.366-0.62l0.619-1.7v-0.891l-0.329-0.734l-0.109-1.199v-1.314l-0.325-0.62h-0.767l0.221-0.348l0.436-0.272
		h0.73l0.326-0.464c0,0,0.221-0.269,0.221-0.502c0-0.231-0.111-0.502-0.111-0.502l-0.291-0.695l-0.145-0.543l-0.693-0.617
		l-0.073-0.542h0.292l0.254-0.385l0.221-0.891l-0.037-0.464l-0.147-0.31L23.2,35.428h-0.365h-0.508l-0.185-0.464
		c0,0-0.546-0.695-0.654-0.657c-0.108,0.04,0-0.502,0-0.502l-0.108-0.31l-0.33-0.385l-0.655-0.582l-0.254-0.23l0.362-0.853
		c0,0,0.109-0.269,0.292-0.385c0.183-0.117,0.475,0,0.475,0s-0.037-0.657-0.037-0.774c0-0.116,0.146-0.31,0.146-0.31l0.654,0.387
		l0.438,0.388l0.326-0.31l0.474-0.85l0.582-0.62l0.438-0.502l0.218-0.774l-0.944-1.276v-0.58l-0.473-0.619l0.29-0.734l0.51,0.426
		l0.655,0.657l0.984,0.772c0,0,0.365,0.619,0.473,0.659c0.108,0.038,0.474,0.657,0.474,0.657l-0.582,0.502l0.143,0.385h0.584
		l0.581-0.116L27.17,26.88l-0.219-1.122l-0.546-0.812l-0.327-0.155l0.219-0.31l1.273-0.31l1.274-0.734l0.727-0.772l1.13-1.431
		l0.875-1.006l1.345-0.31h0.95l0.108-0.348l0.108-1.044l-0.435-0.271l0.291-0.58c0,0,0.145-0.308,0.328-0.542
		c0.182-0.231,0.436-0.502,0.291-0.733c-0.145-0.233-0.291-0.233-0.254-0.426c0.037-0.192,0.182-0.734,0.254-0.889
		c0.072-0.155-0.037-0.852-0.037-0.852s0.074-0.619,0.146-0.735s0.838-0.696,0.838-0.696l0.582-0.618h0.765l0.4-0.696l0.984-0.657
		l0.399-0.348l0.912,0.271l1.221,0.232h0.782l0.764-0.192l-0.217-0.697l0.183-0.619l0.508-0.232l0.873-0.193h1.238L46.104,9.4
		l0.945-0.077l1.164-0.58l0.984-0.619l0.692-0.502l0.983-0.774l1.567-0.31l1.31-0.58L54.224,5.3l0.183-1.044V3.753h0.838
		c0,0,0.182,0.31,0.289,0.31c0.109,0,0.693-0.04,0.693-0.04l-0.363-0.502l0.474-0.386l0.397,0.232l0.184-0.58h0.619l1.057,0.193
		l0.728,0.309l0.763,0.619l0.476,0.927l-0.8,0.659l-0.805,0.617l-1.017,0.387L56.661,7l-1.454,0.657l-1.093,2.515l-1.313,0.385
		l-1.092,1.703l-0.583,1.237l-0.727,1.316l-0.546,1.237l-0.073,0.966l-0.247,1.393l-0.774,0.502l-0.252,0.62l-0.546,0.736
		l-0.546,0.967l0.546,0.231l0.764-0.348l0.654-0.424l0.155,0.502l0.392,0.619l0.475-0.155l0.329,0.04l0.289,1.43l0.365,1.316
		l0.766,0.733l0.691,0.582l0.182,1.238l0.146,1.042l-0.512,0.272l-0.143,0.774l0.072,0.733l0.07,1.355l0.656,0.385l0.768-0.155
		l0.254,0.736l0.545,0.888l0.654,0.389h1.129l0.875,0.038l1.312-0.038l0.874,0.115l0.691-0.077l1.02,0.271l0.438-0.155l0.801-0.387
		l1.602,0.079l0.547,0.463l0.547,0.04l0.434,0.038l0.73-0.117l0.217-0.076l4.189,5.105l0.326-0.155l0.475,0.155l0.218,0.038
		l0.729-0.348l0.326-0.349l1.238,0.194l1.093,0.154l0.804-0.04l0.654-0.116l0.836-0.079l0.729-0.23c0,0,0.365-0.04,0.476-0.04
		c0.109,0,0.507,0.077,0.507,0.077l0.803-0.192l0.765-0.388l1.093,0.232l0.51,0.31l0.254,0.658l0.292,0.657l-0.946,0.502
		l-0.327,0.852l0.218,0.735l-0.252,0.812l-1.095,0.657l-0.109,1.161l0.22,0.889l-0.109,0.774l-0.072,0.813l-0.401,0.966l0.546,0.658
		l0.401,0.695l-0.148,0.891l0.294,0.464l0.324,1.083l0.186,0.813l0.396,0.196l0.476-0.154l0.184,0.464l0.396,1.005l0.331,0.31
		l0.399,0.464l-0.51,0.348l-0.729,0.347l-1.131,1.277L80.295,57.2l0.217,0.231l0.984-0.156l0.691,0.389l0.51,0.617l0.33,0.232
		l0.438,0.348l0.509,0.543l0.436,0.541v0.851l0.185,0.349l0.473,0.271v0.309v0.579l0.584,1.082l0.217,0.813l0.33,1.121l0.252,0.619
		v0.736l-1.273,0.193l0.109-1.354l-0.801-2.128l-0.475-0.192l-0.766-2.164l-0.363,0.075l-0.766,0.813l-1.639,0.696v0.734
		l-0.584,0.077l-0.871-1.006l-0.583-0.154l-0.365,0.154v0.697l0.474,0.386l-0.182,0.155l-3.131,0.077l-1.567,0.04l-2.11-0.117
		l-1.092-0.386l-1.059,0.308l-0.762,0.156l-0.039,1.508l-0.072,2.012h0.365l0.252-0.04h0.51l0.547,0.117l1.13-0.038l0.73,0.27
		l0.362,0.928l0.108,0.891l-0.362,0.695l-0.839-0.31l-0.8-0.54l-0.877,0.658l-1.016,0.309l-1.132,0.115l-0.218,0.31l0.073,3.597
		l0.145,0.271l0.586,0.735l0.471,0.232l0.803,0.541l0.62,0.231l0.107,0.618l-0.219,0.658l0.365,0.544l0.436,0.694l0.437,0.58v1.044
		l0.073,0.735l-0.473,1.779l-1.058,5.918l-0.835,4.369L67.949,97.461z"/>
</g>
</svg>
