<?xml version="1.0" encoding="utf-8"?>
<!-- Generator: Adobe Illustrator 15.0.0, SVG Export Plug-In . SVG Version: 6.00 Build 0)  -->
<!DOCTYPE svg PUBLIC "-//W3C//DTD SVG 1.1//EN" "http://www.w3.org/Graphics/SVG/1.1/DTD/svg11.dtd">
<svg version="1.1"
	 id="svg2" inkscape:version="0.48.2 r9819" sodipodi:docname="east.svg" xmlns:dc="http://purl.org/dc/elements/1.1/" xmlns:cc="http://creativecommons.org/ns#" xmlns:rdf="http://www.w3.org/1999/02/22-rdf-syntax-ns#" xmlns:svg="http://www.w3.org/2000/svg" xmlns:sodipodi="http://sodipodi.sourceforge.net/DTD/sodipodi-0.dtd" xmlns:inkscape="http://www.inkscape.org/namespaces/inkscape"
	 xmlns="http://www.w3.org/2000/svg" xmlns:xlink="http://www.w3.org/1999/xlink" x="0px" y="0px" width="100px" height="100px"
	 viewBox="0 0 100 100" enable-background="new 0 0 100 100" xml:space="preserve">
<sodipodi:namedview  id="namedview6" inkscape:window-width="1145" inkscape:window-height="761" inkscape:pageopacity="0" inkscape:pageshadow="2" inkscape:window-maximized="0" pagecolor="#ffffff" inkscape:cy="61.97431" guidetolerance="10" gridtolerance="10" inkscape:cx="132.83947" objecttolerance="10" inkscape:zoom="3.0208" borderopacity="1" bordercolor="#666666" showgrid="false" inkscape:current-layer="svg2" inkscape:window-y="0" inkscape:window-x="0">
	</sodipodi:namedview>
<path id="path4" inkscape:connector-curvature="0" fill="#FFFFFF" stroke="#060606" stroke-width="0.0071" d="M91.447,43.738
	c-0.002-0.035-0.004-0.07-0.008-0.104c-0.104-0.532-0.438-0.998-0.836-1.358c-1.834-1.776-3.629-3.591-5.414-5.415
	c-0.428-0.418-0.96-0.864-1.587-0.846c-0.712,0.104-1.472,0.599-1.586,1.358c-0.134,0.485,0.009,0.998,0.351,1.358
	c0.979,1.197,2.176,2.204,3.23,3.334c-10.867,0.028-21.734,0-32.602,0.009c0.01-11.275-0.019-22.56,0.01-33.835
	c1.207,1.111,2.262,2.375,3.516,3.429c0.883,0.665,2.289,0.076,2.508-0.988c0.284-0.864-0.361-1.567-0.912-2.118
	c-1.635-1.605-3.249-3.22-4.854-4.844c-0.484-0.475-0.969-0.998-1.624-1.254h-0.617c-0.922,0.418-1.577,1.225-2.28,1.918
	c-1.539,1.596-3.163,3.116-4.692,4.712c-0.494,0.437-0.513,1.149-0.38,1.748c0.323,0.959,1.644,1.463,2.479,0.827
	c1.254-1.055,2.308-2.318,3.515-3.429c0.028,11.275,0,22.56,0.009,33.835c-11.693-0.009-23.386,0.019-35.08-0.009
	c1.035-1.102,2.185-2.071,3.144-3.239c0.418-0.447,0.599-1.14,0.342-1.719c-0.256-0.618-0.893-1.064-1.558-1.093
	c-0.741,0.029-1.339,0.58-1.843,1.083c-1.644,1.682-3.315,3.344-4.987,4.997c-0.513,0.532-1.159,1.207-0.912,2.023
	c0.076,0.57,0.561,0.959,0.921,1.358c1.719,1.7,3.429,3.41,5.129,5.139c0.532,0.513,1.207,1.158,2.023,0.912
	c1.102-0.182,1.748-1.663,1.045-2.565c-1.064-1.216-2.29-2.28-3.391-3.458c11.722-0.019,23.443,0,35.165-0.009
	c0,5.5,0.01,11.009-0.009,16.509c-1.32,0.19-2.65,0.399-3.914,0.846c-4.711,1.559-8.739,5.148-10.696,9.727
	c-2.271,4.931-1.995,10.934,0.655,15.664c2.641,5.025,7.855,8.445,13.441,9.215h4.37c2.688-0.408,5.291-1.34,7.561-2.841
	c4.494-2.916,7.523-7.97,7.961-13.308c0.541-5.092-1.406-10.297-4.949-13.945c-2.906-3.021-6.925-4.92-11.086-5.357
	c-0.019-5.5-0.01-11-0.01-16.509c10.867,0,21.734-0.01,32.602,0.009c-0.988,1.045-2.043,2.014-3.03,3.059
	c-0.494,0.532-0.788,1.387-0.409,2.062c0.343,0.778,1.378,1.178,2.147,0.816c0.751-0.456,1.349-1.121,1.966-1.738
	c1.502-1.539,3.05-3.03,4.561-4.56C91.205,44.778,91.463,44.262,91.447,43.738z M65.744,79.633c0.018,2.043-0.395,4.091-1.244,5.957
	c-2.118,4.902-7.182,8.426-12.549,8.54c-3.761,0.247-7.57-1.187-10.325-3.733c-3.182-2.82-4.939-7.133-4.702-11.37
	c0.181-4.588,2.764-8.985,6.64-11.427c1.824-1.188,3.933-1.938,6.099-2.176c0.009,4.664,0.019,9.338,0,14.002
	c-1.045-0.988-2.023-2.043-3.059-3.04c-0.333-0.266-0.684-0.627-1.149-0.636c-0.95-0.143-1.957,0.674-1.862,1.662
	c-0.143,0.617,0.371,1.055,0.731,1.453c1.957,1.938,3.895,3.895,5.842,5.842c0.504,0.57,1.463,0.674,2.052,0.189
	c0.579-0.427,1.055-0.969,1.567-1.472c1.51-1.529,3.039-3.04,4.56-4.56c0.36-0.408,0.808-0.855,0.731-1.453
	c0.038-0.826-0.637-1.605-1.463-1.662c-0.599-0.105-1.149,0.218-1.558,0.636c-1.026,1.007-2.015,2.052-3.05,3.05
	c-0.028-4.684-0.01-9.357-0.01-14.031c4.902,0.561,9.386,3.801,11.418,8.293C65.279,75.55,65.727,77.589,65.744,79.633
	L65.744,79.633z"/>
</svg>
